<?xml version="1.0" encoding="utf-8"?>
<!-- Generator: Adobe Illustrator 16.0.1, SVG Export Plug-In . SVG Version: 6.00 Build 0)  -->
<!DOCTYPE svg PUBLIC "-//W3C//DTD SVG 1.1//EN" "http://www.w3.org/Graphics/SVG/1.1/DTD/svg11.dtd">
<svg version="1.1" id="Слой_1" xmlns="http://www.w3.org/2000/svg" xmlns:xlink="http://www.w3.org/1999/xlink" x="0px" y="0px"
	 width="16px" height="16px" viewBox="0 0 16 16" enable-background="new 0 0 16 16" xml:space="preserve">
<g>
	<path fill="#666666" d="M0.078,13.194v2.725h2.875c-0.696-0.114-1.375-0.434-1.917-0.975C0.535,14.443,0.215,13.831,0.078,13.194z"
		/>
	<path fill="#666666" d="M14.956,1.034C13.621-0.3,11.481-0.35,10.207,0.925l-9.283,9.272c-0.797,0.797-1.077,1.933-0.847,2.997
		v-1.238h2.517c0.051-0.571,0.349-1.212,0.878-1.738l6.754-6.75c0.929-0.928,2.204-1.172,2.835-0.542
		c0.63,0.629,0.385,1.904-0.542,2.833l-6.755,6.75c-0.523,0.522-1.153,0.818-1.721,0.872v2.537H2.952
		c1.018,0.167,2.076-0.111,2.833-0.866l9.28-9.274C16.34,4.506,16.293,2.368,14.956,1.034z"/>
	<path fill="#666666" d="M4.043,13.382c-0.439,0.042-0.841-0.057-1.117-0.332c-0.269-0.271-0.369-0.663-0.333-1.094H0.078v1.238
		c0.137,0.637,0.458,1.249,0.958,1.75c0.542,0.541,1.22,0.86,1.917,0.975h1.091V13.382z"/>
	<path fill="#666666" d="M2.927,13.05c0.276,0.275,0.678,0.374,1.117,0.332v-1.426H2.594C2.558,12.387,2.658,12.778,2.927,13.05z"/>
</g>
</svg>
