<?xml version="1.0" encoding="utf-8"?>
<!-- Generator: Adobe Illustrator 16.0.1, SVG Export Plug-In . SVG Version: 6.00 Build 0)  -->
<!DOCTYPE svg PUBLIC "-//W3C//DTD SVG 1.1//EN" "http://www.w3.org/Graphics/SVG/1.1/DTD/svg11.dtd">
<svg version="1.1" id="Слой_1" xmlns="http://www.w3.org/2000/svg" xmlns:xlink="http://www.w3.org/1999/xlink" x="0px" y="0px"
	 width="16px" height="16px" viewBox="0 0 16 16" enable-background="new 0 0 16 16" xml:space="preserve">
<g>
	<rect x="5.095" y="6.526" fill="#666666" width="1.954" height="1.886"/>
	<rect x="9" y="6.526" fill="#666666" width="1.953" height="1.886"/>
	<rect x="5.095" y="10.306" fill="#666666" width="1.954" height="1.889"/>
	<rect x="9" y="10.306" fill="#666666" width="1.953" height="1.889"/>
</g>
<path fill="#666666" d="M11.989,0.96c0-0.527-0.602-0.96-1.319-0.96H5.379c-0.72,0-1.32,0.434-1.32,0.96l0.003,1.801h7.927V0.96z"/>
<rect x="0.048" y="2.72" fill="#666666" width="15.952" height="2.075"/>
<path fill="#666666" d="M12.309,2.72H3.745c-0.954,0-1.72,0.747-1.72,1.662v9.958c0,0.918,0.766,1.661,1.72,1.661h8.563
	c0.95,0,1.715-0.743,1.715-1.661V4.381C14.023,3.466,13.259,2.72,12.309,2.72z M12.245,13.685c0,0.265-0.219,0.479-0.499,0.479
	H4.303c-0.272,0-0.498-0.214-0.498-0.479V5.033h8.44V13.685z"/>
</svg>
